<mxfile host="app.diagrams.net" agent="Mozilla/5.0 (Windows NT 10.0; Win64; x64) AppleWebKit/537.36 (KHTML, like Gecko) Chrome/131.0.0.0 Safari/537.36" version="24.8.6">
  <diagram name="Page-1" id="ad3p4Drk9HqlihsE4ULv">
    <mxGraphModel dx="3749" dy="3326" grid="1" gridSize="10" guides="1" tooltips="1" connect="1" arrows="1" fold="1" page="1" pageScale="1" pageWidth="850" pageHeight="1100" math="0" shadow="0">
      <root>
        <mxCell id="0" />
        <mxCell id="1" parent="0" />
        <mxCell id="ggQNaz5vZSvYGQJoHqNT-167" value="Teams" style="shape=table;startSize=30;container=1;collapsible=0;childLayout=tableLayout;" parent="1" vertex="1">
          <mxGeometry x="-710" y="-1190" width="360" height="90" as="geometry" />
        </mxCell>
        <mxCell id="ggQNaz5vZSvYGQJoHqNT-168" value="" style="shape=tableRow;horizontal=0;startSize=0;swimlaneHead=0;swimlaneBody=0;strokeColor=inherit;top=0;left=0;bottom=0;right=0;collapsible=0;dropTarget=0;fillColor=none;points=[[0,0.5],[1,0.5]];portConstraint=eastwest;" parent="ggQNaz5vZSvYGQJoHqNT-167" vertex="1">
          <mxGeometry y="30" width="360" height="60" as="geometry" />
        </mxCell>
        <mxCell id="ggQNaz5vZSvYGQJoHqNT-169" value="&lt;u&gt;team_ID&lt;/u&gt;&lt;div&gt;PK, int, NN&lt;/div&gt;" style="shape=partialRectangle;html=1;whiteSpace=wrap;connectable=0;strokeColor=inherit;overflow=hidden;fillColor=none;top=0;left=0;bottom=0;right=0;pointerEvents=1;" parent="ggQNaz5vZSvYGQJoHqNT-168" vertex="1">
          <mxGeometry width="124" height="60" as="geometry">
            <mxRectangle width="124" height="60" as="alternateBounds" />
          </mxGeometry>
        </mxCell>
        <mxCell id="ggQNaz5vZSvYGQJoHqNT-170" value="name&lt;div&gt;char(25), NN&lt;/div&gt;" style="shape=partialRectangle;html=1;whiteSpace=wrap;connectable=0;strokeColor=inherit;overflow=hidden;fillColor=none;top=0;left=0;bottom=0;right=0;pointerEvents=1;" parent="ggQNaz5vZSvYGQJoHqNT-168" vertex="1">
          <mxGeometry x="124" width="90" height="60" as="geometry">
            <mxRectangle width="90" height="60" as="alternateBounds" />
          </mxGeometry>
        </mxCell>
        <mxCell id="ggQNaz5vZSvYGQJoHqNT-172" value="placement&lt;div&gt;int, NN&lt;/div&gt;" style="shape=partialRectangle;html=1;whiteSpace=wrap;connectable=0;strokeColor=inherit;overflow=hidden;fillColor=none;top=0;left=0;bottom=0;right=0;pointerEvents=1;" parent="ggQNaz5vZSvYGQJoHqNT-168" vertex="1">
          <mxGeometry x="214" width="73" height="60" as="geometry">
            <mxRectangle width="73" height="60" as="alternateBounds" />
          </mxGeometry>
        </mxCell>
        <mxCell id="ZgVBSUrqZPIvhMbExBmI-50" value="nationality&lt;div&gt;char(25), NN&lt;/div&gt;" style="shape=partialRectangle;html=1;whiteSpace=wrap;connectable=0;strokeColor=inherit;overflow=hidden;fillColor=none;top=0;left=0;bottom=0;right=0;pointerEvents=1;" parent="ggQNaz5vZSvYGQJoHqNT-168" vertex="1">
          <mxGeometry x="287" width="73" height="60" as="geometry">
            <mxRectangle width="73" height="60" as="alternateBounds" />
          </mxGeometry>
        </mxCell>
        <mxCell id="ggQNaz5vZSvYGQJoHqNT-173" value="Team_player_characters" style="shape=table;startSize=30;container=1;collapsible=0;childLayout=tableLayout;" parent="1" vertex="1">
          <mxGeometry x="-560" y="-710" width="180" height="90" as="geometry" />
        </mxCell>
        <mxCell id="ggQNaz5vZSvYGQJoHqNT-174" value="" style="shape=tableRow;horizontal=0;startSize=0;swimlaneHead=0;swimlaneBody=0;strokeColor=inherit;top=0;left=0;bottom=0;right=0;collapsible=0;dropTarget=0;fillColor=none;points=[[0,0.5],[1,0.5]];portConstraint=eastwest;" parent="ggQNaz5vZSvYGQJoHqNT-173" vertex="1">
          <mxGeometry y="30" width="180" height="60" as="geometry" />
        </mxCell>
        <mxCell id="ggQNaz5vZSvYGQJoHqNT-175" value="player_ID&lt;div&gt;FK, int, NN&lt;/div&gt;" style="shape=partialRectangle;html=1;whiteSpace=wrap;connectable=0;strokeColor=inherit;overflow=hidden;fillColor=none;top=0;left=0;bottom=0;right=0;pointerEvents=1;" parent="ggQNaz5vZSvYGQJoHqNT-174" vertex="1">
          <mxGeometry width="90" height="60" as="geometry">
            <mxRectangle width="90" height="60" as="alternateBounds" />
          </mxGeometry>
        </mxCell>
        <mxCell id="ggQNaz5vZSvYGQJoHqNT-176" value="&lt;div&gt;&lt;span style=&quot;background-color: initial;&quot;&gt;characters&lt;/span&gt;&lt;/div&gt;&lt;div&gt;&lt;span style=&quot;background-color: initial;&quot;&gt;char(25), NN&lt;/span&gt;&lt;br&gt;&lt;/div&gt;" style="shape=partialRectangle;html=1;whiteSpace=wrap;connectable=0;strokeColor=inherit;overflow=hidden;fillColor=none;top=0;left=0;bottom=0;right=0;pointerEvents=1;" parent="ggQNaz5vZSvYGQJoHqNT-174" vertex="1">
          <mxGeometry x="90" width="90" height="60" as="geometry">
            <mxRectangle width="90" height="60" as="alternateBounds" />
          </mxGeometry>
        </mxCell>
        <mxCell id="RF9UO28xhAd94TXeWBSm-53" style="edgeStyle=none;rounded=0;orthogonalLoop=1;jettySize=auto;html=1;entryX=0;entryY=0.5;entryDx=0;entryDy=0;" parent="ggQNaz5vZSvYGQJoHqNT-173" source="ggQNaz5vZSvYGQJoHqNT-174" target="ggQNaz5vZSvYGQJoHqNT-174" edge="1">
          <mxGeometry relative="1" as="geometry" />
        </mxCell>
        <mxCell id="ggQNaz5vZSvYGQJoHqNT-178" value="Players" style="shape=table;startSize=30;container=1;collapsible=0;childLayout=tableLayout;" parent="1" vertex="1">
          <mxGeometry x="-730" y="-940" width="350" height="90" as="geometry" />
        </mxCell>
        <mxCell id="ggQNaz5vZSvYGQJoHqNT-179" value="" style="shape=tableRow;horizontal=0;startSize=0;swimlaneHead=0;swimlaneBody=0;strokeColor=inherit;top=0;left=0;bottom=0;right=0;collapsible=0;dropTarget=0;fillColor=none;points=[[0,0.5],[1,0.5]];portConstraint=eastwest;" parent="ggQNaz5vZSvYGQJoHqNT-178" vertex="1">
          <mxGeometry y="30" width="350" height="60" as="geometry" />
        </mxCell>
        <mxCell id="ggQNaz5vZSvYGQJoHqNT-180" value="&lt;div&gt;&lt;u&gt;player_ID&lt;/u&gt;&lt;/div&gt;&lt;div&gt;PK, int, NN&lt;/div&gt;" style="shape=partialRectangle;html=1;whiteSpace=wrap;connectable=0;strokeColor=inherit;overflow=hidden;fillColor=none;top=0;left=0;bottom=0;right=0;pointerEvents=1;" parent="ggQNaz5vZSvYGQJoHqNT-179" vertex="1">
          <mxGeometry width="76" height="60" as="geometry">
            <mxRectangle width="76" height="60" as="alternateBounds" />
          </mxGeometry>
        </mxCell>
        <mxCell id="ggQNaz5vZSvYGQJoHqNT-182" value="&lt;div&gt;name&lt;/div&gt;&lt;span style=&quot;background-color: initial;&quot;&gt;char(25), NN&lt;/span&gt;" style="shape=partialRectangle;html=1;whiteSpace=wrap;connectable=0;strokeColor=inherit;overflow=hidden;fillColor=none;top=0;left=0;bottom=0;right=0;pointerEvents=1;" parent="ggQNaz5vZSvYGQJoHqNT-179" vertex="1">
          <mxGeometry x="76" width="104" height="60" as="geometry">
            <mxRectangle width="104" height="60" as="alternateBounds" />
          </mxGeometry>
        </mxCell>
        <mxCell id="RF9UO28xhAd94TXeWBSm-51" value="age&lt;div&gt;int,NN&lt;/div&gt;" style="shape=partialRectangle;html=1;whiteSpace=wrap;connectable=0;strokeColor=inherit;overflow=hidden;fillColor=none;top=0;left=0;bottom=0;right=0;pointerEvents=1;" parent="ggQNaz5vZSvYGQJoHqNT-179" vertex="1">
          <mxGeometry x="180" width="84" height="60" as="geometry">
            <mxRectangle width="84" height="60" as="alternateBounds" />
          </mxGeometry>
        </mxCell>
        <mxCell id="ZgVBSUrqZPIvhMbExBmI-51" value="team_ID&lt;div&gt;FK, int, NN&lt;/div&gt;" style="shape=partialRectangle;html=1;whiteSpace=wrap;connectable=0;strokeColor=inherit;overflow=hidden;fillColor=none;top=0;left=0;bottom=0;right=0;pointerEvents=1;" parent="ggQNaz5vZSvYGQJoHqNT-179" vertex="1">
          <mxGeometry x="264" width="86" height="60" as="geometry">
            <mxRectangle width="86" height="60" as="alternateBounds" />
          </mxGeometry>
        </mxCell>
        <mxCell id="4-B0RwPiIrZEXIzjVuO4-1" value="WP" style="shape=table;startSize=30;container=1;collapsible=0;childLayout=tableLayout;" parent="1" vertex="1">
          <mxGeometry x="-90" y="-960" width="230" height="90" as="geometry" />
        </mxCell>
        <mxCell id="4-B0RwPiIrZEXIzjVuO4-2" value="" style="shape=tableRow;horizontal=0;startSize=0;swimlaneHead=0;swimlaneBody=0;strokeColor=inherit;top=0;left=0;bottom=0;right=0;collapsible=0;dropTarget=0;fillColor=none;points=[[0,0.5],[1,0.5]];portConstraint=eastwest;" parent="4-B0RwPiIrZEXIzjVuO4-1" vertex="1">
          <mxGeometry y="30" width="230" height="60" as="geometry" />
        </mxCell>
        <mxCell id="4-B0RwPiIrZEXIzjVuO4-3" value="player_ID&lt;div&gt;FK, int, NN&lt;/div&gt;" style="shape=partialRectangle;html=1;whiteSpace=wrap;connectable=0;strokeColor=inherit;overflow=hidden;fillColor=none;top=0;left=0;bottom=0;right=0;pointerEvents=1;" parent="4-B0RwPiIrZEXIzjVuO4-2" vertex="1">
          <mxGeometry width="70" height="60" as="geometry">
            <mxRectangle width="70" height="60" as="alternateBounds" />
          </mxGeometry>
        </mxCell>
        <mxCell id="4-B0RwPiIrZEXIzjVuO4-4" value="&lt;div&gt;weapon_ID&lt;/div&gt;&lt;div&gt;FK, int, NN&lt;/div&gt;" style="shape=partialRectangle;html=1;whiteSpace=wrap;connectable=0;strokeColor=inherit;overflow=hidden;fillColor=none;top=0;left=0;bottom=0;right=0;pointerEvents=1;" parent="4-B0RwPiIrZEXIzjVuO4-2" vertex="1">
          <mxGeometry x="70" width="80" height="60" as="geometry">
            <mxRectangle width="80" height="60" as="alternateBounds" />
          </mxGeometry>
        </mxCell>
        <mxCell id="4-B0RwPiIrZEXIzjVuO4-5" value="&lt;div&gt;price&lt;/div&gt;&lt;div&gt;int, NN&lt;/div&gt;" style="shape=partialRectangle;html=1;whiteSpace=wrap;connectable=0;strokeColor=inherit;overflow=hidden;fillColor=none;top=0;left=0;bottom=0;right=0;pointerEvents=1;" parent="4-B0RwPiIrZEXIzjVuO4-2" vertex="1">
          <mxGeometry x="150" width="80" height="60" as="geometry">
            <mxRectangle width="80" height="60" as="alternateBounds" />
          </mxGeometry>
        </mxCell>
        <mxCell id="4-B0RwPiIrZEXIzjVuO4-6" value="Player_statistics" style="shape=table;startSize=30;container=1;collapsible=0;childLayout=tableLayout;" parent="1" vertex="1">
          <mxGeometry x="-1250" y="-1190" width="452" height="90" as="geometry" />
        </mxCell>
        <mxCell id="4-B0RwPiIrZEXIzjVuO4-7" value="" style="shape=tableRow;horizontal=0;startSize=0;swimlaneHead=0;swimlaneBody=0;strokeColor=inherit;top=0;left=0;bottom=0;right=0;collapsible=0;dropTarget=0;fillColor=none;points=[[0,0.5],[1,0.5]];portConstraint=eastwest;" parent="4-B0RwPiIrZEXIzjVuO4-6" vertex="1">
          <mxGeometry y="30" width="452" height="60" as="geometry" />
        </mxCell>
        <mxCell id="RF9UO28xhAd94TXeWBSm-26" value="&lt;u&gt;statistics_ID&lt;/u&gt;&lt;div&gt;PK, int, NN&lt;/div&gt;" style="shape=partialRectangle;html=1;whiteSpace=wrap;connectable=0;strokeColor=inherit;overflow=hidden;fillColor=none;top=0;left=0;bottom=0;right=0;pointerEvents=1;" parent="4-B0RwPiIrZEXIzjVuO4-7" vertex="1">
          <mxGeometry width="70" height="60" as="geometry">
            <mxRectangle width="70" height="60" as="alternateBounds" />
          </mxGeometry>
        </mxCell>
        <mxCell id="4-B0RwPiIrZEXIzjVuO4-10" value="kills&lt;br&gt;&lt;div&gt;int, NN&lt;/div&gt;" style="shape=partialRectangle;html=1;whiteSpace=wrap;connectable=0;strokeColor=inherit;overflow=hidden;fillColor=none;top=0;left=0;bottom=0;right=0;pointerEvents=1;" parent="4-B0RwPiIrZEXIzjVuO4-7" vertex="1">
          <mxGeometry x="70" width="50" height="60" as="geometry">
            <mxRectangle width="50" height="60" as="alternateBounds" />
          </mxGeometry>
        </mxCell>
        <mxCell id="4-B0RwPiIrZEXIzjVuO4-11" value="deaths&lt;div&gt;int, NN&lt;/div&gt;" style="shape=partialRectangle;html=1;whiteSpace=wrap;connectable=0;strokeColor=inherit;overflow=hidden;fillColor=none;top=0;left=0;bottom=0;right=0;pointerEvents=1;" parent="4-B0RwPiIrZEXIzjVuO4-7" vertex="1">
          <mxGeometry x="120" width="59" height="60" as="geometry">
            <mxRectangle width="59" height="60" as="alternateBounds" />
          </mxGeometry>
        </mxCell>
        <mxCell id="4-B0RwPiIrZEXIzjVuO4-12" value="assists&lt;br&gt;&lt;div&gt;int, NN&lt;/div&gt;" style="shape=partialRectangle;html=1;whiteSpace=wrap;connectable=0;strokeColor=inherit;overflow=hidden;fillColor=none;top=0;left=0;bottom=0;right=0;pointerEvents=1;" parent="4-B0RwPiIrZEXIzjVuO4-7" vertex="1">
          <mxGeometry x="179" width="91" height="60" as="geometry">
            <mxRectangle width="91" height="60" as="alternateBounds" />
          </mxGeometry>
        </mxCell>
        <mxCell id="ZgVBSUrqZPIvhMbExBmI-52" value="match_ID&lt;div&gt;FK, int, NN&lt;/div&gt;" style="shape=partialRectangle;html=1;whiteSpace=wrap;connectable=0;strokeColor=inherit;overflow=hidden;fillColor=none;top=0;left=0;bottom=0;right=0;pointerEvents=1;" parent="4-B0RwPiIrZEXIzjVuO4-7" vertex="1">
          <mxGeometry x="270" width="91" height="60" as="geometry">
            <mxRectangle width="91" height="60" as="alternateBounds" />
          </mxGeometry>
        </mxCell>
        <mxCell id="ZgVBSUrqZPIvhMbExBmI-53" value="player_ID&lt;div&gt;FK, int, NN&lt;/div&gt;" style="shape=partialRectangle;html=1;whiteSpace=wrap;connectable=0;strokeColor=inherit;overflow=hidden;fillColor=none;top=0;left=0;bottom=0;right=0;pointerEvents=1;" parent="4-B0RwPiIrZEXIzjVuO4-7" vertex="1">
          <mxGeometry x="361" width="91" height="60" as="geometry">
            <mxRectangle width="91" height="60" as="alternateBounds" />
          </mxGeometry>
        </mxCell>
        <mxCell id="4-B0RwPiIrZEXIzjVuO4-13" value="Match&#xa;" style="shape=table;startSize=30;container=1;collapsible=0;childLayout=tableLayout;" parent="1" vertex="1">
          <mxGeometry x="-190" y="-1190" width="580" height="110" as="geometry" />
        </mxCell>
        <mxCell id="4-B0RwPiIrZEXIzjVuO4-14" value="" style="shape=tableRow;horizontal=0;startSize=0;swimlaneHead=0;swimlaneBody=0;strokeColor=inherit;top=0;left=0;bottom=0;right=0;collapsible=0;dropTarget=0;fillColor=none;points=[[0,0.5],[1,0.5]];portConstraint=eastwest;" parent="4-B0RwPiIrZEXIzjVuO4-13" vertex="1">
          <mxGeometry y="30" width="580" height="80" as="geometry" />
        </mxCell>
        <mxCell id="4-B0RwPiIrZEXIzjVuO4-15" value="&lt;u&gt;match_ID&lt;/u&gt;&lt;div&gt;PK, int, NN&lt;/div&gt;" style="shape=partialRectangle;html=1;whiteSpace=wrap;connectable=0;strokeColor=inherit;overflow=hidden;fillColor=none;top=0;left=0;bottom=0;right=0;pointerEvents=1;" parent="4-B0RwPiIrZEXIzjVuO4-14" vertex="1">
          <mxGeometry width="80" height="80" as="geometry">
            <mxRectangle width="80" height="80" as="alternateBounds" />
          </mxGeometry>
        </mxCell>
        <mxCell id="4-B0RwPiIrZEXIzjVuO4-18" value="map&lt;div&gt;char(25), NN&lt;/div&gt;" style="shape=partialRectangle;html=1;whiteSpace=wrap;connectable=0;strokeColor=inherit;overflow=hidden;fillColor=none;top=0;left=0;bottom=0;right=0;pointerEvents=1;" parent="4-B0RwPiIrZEXIzjVuO4-14" vertex="1">
          <mxGeometry x="80" width="80" height="80" as="geometry">
            <mxRectangle width="80" height="80" as="alternateBounds" />
          </mxGeometry>
        </mxCell>
        <mxCell id="4-B0RwPiIrZEXIzjVuO4-20" value="date&lt;br&gt;&lt;div&gt;Date, NN&lt;/div&gt;" style="shape=partialRectangle;html=1;whiteSpace=wrap;connectable=0;strokeColor=inherit;overflow=hidden;fillColor=none;top=0;left=0;bottom=0;right=0;pointerEvents=1;" parent="4-B0RwPiIrZEXIzjVuO4-14" vertex="1">
          <mxGeometry x="160" width="90" height="80" as="geometry">
            <mxRectangle width="90" height="80" as="alternateBounds" />
          </mxGeometry>
        </mxCell>
        <mxCell id="RF9UO28xhAd94TXeWBSm-20" value="result&lt;div&gt;char(25), NN&lt;/div&gt;" style="shape=partialRectangle;html=1;whiteSpace=wrap;connectable=0;strokeColor=inherit;overflow=hidden;fillColor=none;top=0;left=0;bottom=0;right=0;pointerEvents=1;" parent="4-B0RwPiIrZEXIzjVuO4-14" vertex="1">
          <mxGeometry x="250" width="110" height="80" as="geometry">
            <mxRectangle width="110" height="80" as="alternateBounds" />
          </mxGeometry>
        </mxCell>
        <mxCell id="ZgVBSUrqZPIvhMbExBmI-56" value="team1_ID&lt;div&gt;FK, int, NN&lt;/div&gt;" style="shape=partialRectangle;html=1;whiteSpace=wrap;connectable=0;strokeColor=inherit;overflow=hidden;fillColor=none;top=0;left=0;bottom=0;right=0;pointerEvents=1;" parent="4-B0RwPiIrZEXIzjVuO4-14" vertex="1">
          <mxGeometry x="360" width="110" height="80" as="geometry">
            <mxRectangle width="110" height="80" as="alternateBounds" />
          </mxGeometry>
        </mxCell>
        <mxCell id="ZgVBSUrqZPIvhMbExBmI-57" value="team2_ID&lt;div&gt;FK, int, NN&lt;/div&gt;" style="shape=partialRectangle;html=1;whiteSpace=wrap;connectable=0;strokeColor=inherit;overflow=hidden;fillColor=none;top=0;left=0;bottom=0;right=0;pointerEvents=1;" parent="4-B0RwPiIrZEXIzjVuO4-14" vertex="1">
          <mxGeometry x="470" width="110" height="80" as="geometry">
            <mxRectangle width="110" height="80" as="alternateBounds" />
          </mxGeometry>
        </mxCell>
        <mxCell id="RF9UO28xhAd94TXeWBSm-31" value="" style="endArrow=none;html=1;rounded=0;fillColor=#ffe6cc;strokeColor=#000000;" parent="1" edge="1">
          <mxGeometry width="50" height="50" relative="1" as="geometry">
            <mxPoint x="-650" y="-990" as="sourcePoint" />
            <mxPoint x="340" y="-990" as="targetPoint" />
            <Array as="points">
              <mxPoint x="-350" y="-990" />
            </Array>
          </mxGeometry>
        </mxCell>
        <mxCell id="RF9UO28xhAd94TXeWBSm-32" value="" style="endArrow=none;html=1;rounded=0;entryX=0.223;entryY=1.01;entryDx=0;entryDy=0;entryPerimeter=0;fillColor=#ffe6cc;strokeColor=#000000;" parent="1" edge="1">
          <mxGeometry width="50" height="50" relative="1" as="geometry">
            <mxPoint x="210" y="-1020" as="sourcePoint" />
            <mxPoint x="210.33999999999992" y="-1080.0000000000002" as="targetPoint" />
            <Array as="points" />
          </mxGeometry>
        </mxCell>
        <mxCell id="RF9UO28xhAd94TXeWBSm-33" value="" style="endArrow=none;html=1;rounded=0;entryX=0.223;entryY=1.01;entryDx=0;entryDy=0;entryPerimeter=0;fillColor=#ffe6cc;strokeColor=#000000;" parent="1" edge="1">
          <mxGeometry width="50" height="50" relative="1" as="geometry">
            <mxPoint x="339.57" y="-990" as="sourcePoint" />
            <mxPoint x="339.57" y="-1080" as="targetPoint" />
            <Array as="points">
              <mxPoint x="339.57" y="-1051" />
            </Array>
          </mxGeometry>
        </mxCell>
        <mxCell id="RF9UO28xhAd94TXeWBSm-34" value="" style="endArrow=classic;html=1;rounded=0;fillColor=#ffe6cc;strokeColor=#000000;" parent="1" edge="1">
          <mxGeometry width="50" height="50" relative="1" as="geometry">
            <mxPoint x="-650" y="-990" as="sourcePoint" />
            <mxPoint x="-650" y="-1100" as="targetPoint" />
          </mxGeometry>
        </mxCell>
        <mxCell id="RF9UO28xhAd94TXeWBSm-36" value="" style="endArrow=none;html=1;rounded=0;fillColor=#ffe6cc;strokeColor=#000000;" parent="1" edge="1">
          <mxGeometry width="50" height="50" relative="1" as="geometry">
            <mxPoint x="-430" y="-770" as="sourcePoint" />
            <mxPoint x="-310" y="-770" as="targetPoint" />
          </mxGeometry>
        </mxCell>
        <mxCell id="RF9UO28xhAd94TXeWBSm-37" value="" style="endArrow=none;html=1;rounded=0;fillColor=#ffe6cc;strokeColor=#000000;" parent="1" edge="1">
          <mxGeometry width="50" height="50" relative="1" as="geometry">
            <mxPoint x="-310" y="-770" as="sourcePoint" />
            <mxPoint x="-310" y="-970" as="targetPoint" />
            <Array as="points">
              <mxPoint x="-310" y="-813.1800000000001" />
            </Array>
          </mxGeometry>
        </mxCell>
        <mxCell id="RF9UO28xhAd94TXeWBSm-40" value="" style="endArrow=none;html=1;rounded=0;fillColor=#ffe6cc;strokeColor=#000000;" parent="1" edge="1">
          <mxGeometry width="50" height="50" relative="1" as="geometry">
            <mxPoint x="-430" y="-770" as="sourcePoint" />
            <mxPoint x="-430" y="-850" as="targetPoint" />
          </mxGeometry>
        </mxCell>
        <mxCell id="RF9UO28xhAd94TXeWBSm-52" value="" style="endArrow=none;html=1;rounded=0;entryX=0;entryY=0.5;entryDx=0;entryDy=0;fillColor=#f8cecc;strokeColor=#000000;" parent="1" target="ggQNaz5vZSvYGQJoHqNT-174" edge="1">
          <mxGeometry width="50" height="50" relative="1" as="geometry">
            <mxPoint x="-690" y="-650" as="sourcePoint" />
            <mxPoint x="-570" y="-650" as="targetPoint" />
          </mxGeometry>
        </mxCell>
        <mxCell id="RF9UO28xhAd94TXeWBSm-56" value="Weapons" style="shape=table;startSize=30;container=1;collapsible=0;childLayout=tableLayout;" parent="1" vertex="1">
          <mxGeometry x="250" y="-960" width="180" height="70" as="geometry" />
        </mxCell>
        <mxCell id="RF9UO28xhAd94TXeWBSm-57" value="" style="shape=tableRow;horizontal=0;startSize=0;swimlaneHead=0;swimlaneBody=0;strokeColor=inherit;top=0;left=0;bottom=0;right=0;collapsible=0;dropTarget=0;fillColor=none;points=[[0,0.5],[1,0.5]];portConstraint=eastwest;" parent="RF9UO28xhAd94TXeWBSm-56" vertex="1">
          <mxGeometry y="30" width="180" height="40" as="geometry" />
        </mxCell>
        <mxCell id="RF9UO28xhAd94TXeWBSm-58" value="&lt;u&gt;weapon_ID&lt;/u&gt;&lt;div&gt;PK, int, NN&lt;/div&gt;" style="shape=partialRectangle;html=1;whiteSpace=wrap;connectable=0;strokeColor=inherit;overflow=hidden;fillColor=none;top=0;left=0;bottom=0;right=0;pointerEvents=1;" parent="RF9UO28xhAd94TXeWBSm-57" vertex="1">
          <mxGeometry width="90" height="40" as="geometry">
            <mxRectangle width="90" height="40" as="alternateBounds" />
          </mxGeometry>
        </mxCell>
        <mxCell id="RF9UO28xhAd94TXeWBSm-59" value="name&lt;div&gt;char(25), NN&lt;/div&gt;" style="shape=partialRectangle;html=1;whiteSpace=wrap;connectable=0;strokeColor=inherit;overflow=hidden;fillColor=none;top=0;left=0;bottom=0;right=0;pointerEvents=1;" parent="RF9UO28xhAd94TXeWBSm-57" vertex="1">
          <mxGeometry x="90" width="90" height="40" as="geometry">
            <mxRectangle width="90" height="40" as="alternateBounds" />
          </mxGeometry>
        </mxCell>
        <mxCell id="RF9UO28xhAd94TXeWBSm-61" value="" style="endArrow=none;html=1;rounded=0;fillColor=#f8cecc;strokeColor=#000000;" parent="1" edge="1">
          <mxGeometry width="50" height="50" relative="1" as="geometry">
            <mxPoint x="-40" y="-730" as="sourcePoint" />
            <mxPoint x="-40" y="-870" as="targetPoint" />
          </mxGeometry>
        </mxCell>
        <mxCell id="RF9UO28xhAd94TXeWBSm-62" value="" style="endArrow=none;html=1;rounded=0;" parent="1" edge="1">
          <mxGeometry width="50" height="50" relative="1" as="geometry">
            <mxPoint x="30" y="-810" as="sourcePoint" />
            <mxPoint x="30" y="-870" as="targetPoint" />
          </mxGeometry>
        </mxCell>
        <mxCell id="RF9UO28xhAd94TXeWBSm-63" value="" style="endArrow=none;html=1;rounded=0;" parent="1" edge="1">
          <mxGeometry width="50" height="50" relative="1" as="geometry">
            <mxPoint x="30" y="-810" as="sourcePoint" />
            <mxPoint x="290" y="-810" as="targetPoint" />
          </mxGeometry>
        </mxCell>
        <mxCell id="RF9UO28xhAd94TXeWBSm-64" value="" style="endArrow=classic;html=1;rounded=0;entryX=0.221;entryY=1.079;entryDx=0;entryDy=0;entryPerimeter=0;" parent="1" target="RF9UO28xhAd94TXeWBSm-57" edge="1">
          <mxGeometry width="50" height="50" relative="1" as="geometry">
            <mxPoint x="290" y="-810" as="sourcePoint" />
            <mxPoint x="340" y="-860" as="targetPoint" />
          </mxGeometry>
        </mxCell>
        <mxCell id="ZgVBSUrqZPIvhMbExBmI-40" value="" style="endArrow=classic;html=1;rounded=0;fontSize=12;startSize=8;endSize=8;curved=1;entryX=0.114;entryY=1;entryDx=0;entryDy=0;entryPerimeter=0;" parent="1" target="ggQNaz5vZSvYGQJoHqNT-179" edge="1">
          <mxGeometry width="50" height="50" relative="1" as="geometry">
            <mxPoint x="-690" y="-650" as="sourcePoint" />
            <mxPoint x="-640" y="-700" as="targetPoint" />
          </mxGeometry>
        </mxCell>
        <mxCell id="ZgVBSUrqZPIvhMbExBmI-41" value="" style="endArrow=none;html=1;rounded=0;fontSize=12;startSize=8;endSize=8;curved=1;" parent="1" edge="1">
          <mxGeometry width="50" height="50" relative="1" as="geometry">
            <mxPoint x="-680" y="-970" as="sourcePoint" />
            <mxPoint x="-310" y="-970" as="targetPoint" />
          </mxGeometry>
        </mxCell>
        <mxCell id="ZgVBSUrqZPIvhMbExBmI-42" value="" style="endArrow=classic;html=1;rounded=0;fontSize=12;startSize=8;endSize=8;curved=1;" parent="1" edge="1">
          <mxGeometry width="50" height="50" relative="1" as="geometry">
            <mxPoint x="-680" y="-970" as="sourcePoint" />
            <mxPoint x="-680" y="-1100" as="targetPoint" />
          </mxGeometry>
        </mxCell>
        <mxCell id="ZgVBSUrqZPIvhMbExBmI-43" value="Coach" style="shape=table;startSize=30;container=1;collapsible=0;childLayout=tableLayout;" parent="1" vertex="1">
          <mxGeometry x="-710" y="-1370" width="360" height="90" as="geometry" />
        </mxCell>
        <mxCell id="ZgVBSUrqZPIvhMbExBmI-44" value="" style="shape=tableRow;horizontal=0;startSize=0;swimlaneHead=0;swimlaneBody=0;strokeColor=inherit;top=0;left=0;bottom=0;right=0;collapsible=0;dropTarget=0;fillColor=none;points=[[0,0.5],[1,0.5]];portConstraint=eastwest;" parent="ZgVBSUrqZPIvhMbExBmI-43" vertex="1">
          <mxGeometry y="30" width="360" height="60" as="geometry" />
        </mxCell>
        <mxCell id="ZgVBSUrqZPIvhMbExBmI-45" value="&lt;u&gt;coach_ID&lt;/u&gt;&lt;div&gt;PK, int, NN&lt;/div&gt;" style="shape=partialRectangle;html=1;whiteSpace=wrap;connectable=0;strokeColor=inherit;overflow=hidden;fillColor=none;top=0;left=0;bottom=0;right=0;pointerEvents=1;" parent="ZgVBSUrqZPIvhMbExBmI-44" vertex="1">
          <mxGeometry width="72" height="60" as="geometry">
            <mxRectangle width="72" height="60" as="alternateBounds" />
          </mxGeometry>
        </mxCell>
        <mxCell id="ZgVBSUrqZPIvhMbExBmI-46" value="name&lt;div&gt;char(25), NN&lt;/div&gt;" style="shape=partialRectangle;html=1;whiteSpace=wrap;connectable=0;strokeColor=inherit;overflow=hidden;fillColor=none;top=0;left=0;bottom=0;right=0;pointerEvents=1;" parent="ZgVBSUrqZPIvhMbExBmI-44" vertex="1">
          <mxGeometry x="72" width="72" height="60" as="geometry">
            <mxRectangle width="72" height="60" as="alternateBounds" />
          </mxGeometry>
        </mxCell>
        <mxCell id="ZgVBSUrqZPIvhMbExBmI-47" value="age&lt;div&gt;int,NN&lt;/div&gt;" style="shape=partialRectangle;html=1;whiteSpace=wrap;connectable=0;strokeColor=inherit;overflow=hidden;fillColor=none;top=0;left=0;bottom=0;right=0;pointerEvents=1;" parent="ZgVBSUrqZPIvhMbExBmI-44" vertex="1">
          <mxGeometry x="144" width="72" height="60" as="geometry">
            <mxRectangle width="72" height="60" as="alternateBounds" />
          </mxGeometry>
        </mxCell>
        <mxCell id="ZgVBSUrqZPIvhMbExBmI-48" value="&#xa;&lt;span style=&quot;color: rgb(0, 0, 0); font-family: Helvetica; font-size: 12px; font-style: normal; font-variant-ligatures: normal; font-variant-caps: normal; font-weight: 400; letter-spacing: normal; orphans: 2; text-align: center; text-indent: 0px; text-transform: none; widows: 2; word-spacing: 0px; -webkit-text-stroke-width: 0px; white-space: normal; background-color: rgb(251, 251, 251); text-decoration-thickness: initial; text-decoration-style: initial; text-decoration-color: initial; display: inline !important; float: none;&quot;&gt;nationality&lt;/span&gt;&lt;div style=&quot;forced-color-adjust: none; color: rgb(0, 0, 0); font-family: Helvetica; font-size: 12px; font-style: normal; font-variant-ligatures: normal; font-variant-caps: normal; font-weight: 400; letter-spacing: normal; orphans: 2; text-align: center; text-indent: 0px; text-transform: none; widows: 2; word-spacing: 0px; -webkit-text-stroke-width: 0px; white-space: normal; background-color: rgb(251, 251, 251); text-decoration-thickness: initial; text-decoration-style: initial; text-decoration-color: initial;&quot;&gt;char(25), NN&lt;/div&gt;&#xa;&#xa;" style="shape=partialRectangle;html=1;whiteSpace=wrap;connectable=0;strokeColor=inherit;overflow=hidden;fillColor=none;top=0;left=0;bottom=0;right=0;pointerEvents=1;" parent="ZgVBSUrqZPIvhMbExBmI-44" vertex="1">
          <mxGeometry x="216" width="72" height="60" as="geometry">
            <mxRectangle width="72" height="60" as="alternateBounds" />
          </mxGeometry>
        </mxCell>
        <mxCell id="ZgVBSUrqZPIvhMbExBmI-49" value="team_ID&lt;div&gt;FK, int, NN&lt;/div&gt;" style="shape=partialRectangle;html=1;whiteSpace=wrap;connectable=0;strokeColor=inherit;overflow=hidden;fillColor=none;top=0;left=0;bottom=0;right=0;pointerEvents=1;" parent="ZgVBSUrqZPIvhMbExBmI-44" vertex="1">
          <mxGeometry x="288" width="72" height="60" as="geometry">
            <mxRectangle width="72" height="60" as="alternateBounds" />
          </mxGeometry>
        </mxCell>
        <mxCell id="ZgVBSUrqZPIvhMbExBmI-58" value="" style="endArrow=none;html=1;rounded=0;fontSize=12;startSize=8;endSize=8;curved=1;" parent="1" edge="1">
          <mxGeometry width="50" height="50" relative="1" as="geometry">
            <mxPoint x="-380" y="-1230" as="sourcePoint" />
            <mxPoint x="-380" y="-1280" as="targetPoint" />
          </mxGeometry>
        </mxCell>
        <mxCell id="ZgVBSUrqZPIvhMbExBmI-59" value="" style="endArrow=none;html=1;rounded=0;fontSize=12;startSize=8;endSize=8;curved=1;" parent="1" edge="1">
          <mxGeometry width="50" height="50" relative="1" as="geometry">
            <mxPoint x="-770" y="-1230" as="sourcePoint" />
            <mxPoint x="-380" y="-1230" as="targetPoint" />
          </mxGeometry>
        </mxCell>
        <mxCell id="ZgVBSUrqZPIvhMbExBmI-60" value="" style="endArrow=none;html=1;rounded=0;fontSize=12;startSize=8;endSize=8;curved=1;" parent="1" edge="1">
          <mxGeometry width="50" height="50" relative="1" as="geometry">
            <mxPoint x="-770" y="-1130" as="sourcePoint" />
            <mxPoint x="-770" y="-1230" as="targetPoint" />
          </mxGeometry>
        </mxCell>
        <mxCell id="ZgVBSUrqZPIvhMbExBmI-61" value="" style="endArrow=classic;html=1;rounded=0;fontSize=12;startSize=8;endSize=8;curved=1;entryX=0;entryY=0.5;entryDx=0;entryDy=0;" parent="1" target="ggQNaz5vZSvYGQJoHqNT-168" edge="1">
          <mxGeometry width="50" height="50" relative="1" as="geometry">
            <mxPoint x="-770" y="-1130" as="sourcePoint" />
            <mxPoint x="-720" y="-1180" as="targetPoint" />
          </mxGeometry>
        </mxCell>
        <mxCell id="n46B39q-hXr88YNmP09C-1" value="" style="endArrow=none;html=1;rounded=0;fillColor=#ffe6cc;strokeColor=#000000;" edge="1" parent="1">
          <mxGeometry width="50" height="50" relative="1" as="geometry">
            <mxPoint x="-620" y="-1020" as="sourcePoint" />
            <mxPoint x="210" y="-1020" as="targetPoint" />
            <Array as="points">
              <mxPoint x="-480" y="-1020" />
            </Array>
          </mxGeometry>
        </mxCell>
        <mxCell id="n46B39q-hXr88YNmP09C-2" value="" style="endArrow=classic;html=1;rounded=0;fillColor=#ffe6cc;strokeColor=#000000;" edge="1" parent="1">
          <mxGeometry width="50" height="50" relative="1" as="geometry">
            <mxPoint x="-620" y="-1020" as="sourcePoint" />
            <mxPoint x="-620" y="-1100" as="targetPoint" />
          </mxGeometry>
        </mxCell>
        <mxCell id="n46B39q-hXr88YNmP09C-3" value="" style="endArrow=none;html=1;rounded=0;fillColor=#f8cecc;strokeColor=#000000;" edge="1" parent="1">
          <mxGeometry width="50" height="50" relative="1" as="geometry">
            <mxPoint x="-40" y="-730" as="sourcePoint" />
            <mxPoint x="-670" y="-730" as="targetPoint" />
          </mxGeometry>
        </mxCell>
        <mxCell id="n46B39q-hXr88YNmP09C-4" value="" style="endArrow=classic;html=1;rounded=0;fontSize=12;startSize=8;endSize=8;curved=1;entryX=0.172;entryY=1.011;entryDx=0;entryDy=0;entryPerimeter=0;" edge="1" parent="1" target="ggQNaz5vZSvYGQJoHqNT-179">
          <mxGeometry width="50" height="50" relative="1" as="geometry">
            <mxPoint x="-670" y="-730" as="sourcePoint" />
            <mxPoint x="-649.1319999999996" y="-1010.0000000000002" as="targetPoint" />
          </mxGeometry>
        </mxCell>
        <mxCell id="n46B39q-hXr88YNmP09C-5" value="" style="endArrow=none;html=1;rounded=0;fontSize=12;startSize=8;endSize=8;curved=1;" edge="1" parent="1">
          <mxGeometry width="50" height="50" relative="1" as="geometry">
            <mxPoint x="-930" y="-1040" as="sourcePoint" />
            <mxPoint x="-930" y="-1100" as="targetPoint" />
          </mxGeometry>
        </mxCell>
        <mxCell id="n46B39q-hXr88YNmP09C-6" value="" style="endArrow=none;html=1;rounded=0;fontSize=12;startSize=8;endSize=8;curved=1;" edge="1" parent="1">
          <mxGeometry width="50" height="50" relative="1" as="geometry">
            <mxPoint x="-1300" y="-1040" as="sourcePoint" />
            <mxPoint x="-930" y="-1040" as="targetPoint" />
          </mxGeometry>
        </mxCell>
        <mxCell id="n46B39q-hXr88YNmP09C-7" value="" style="endArrow=none;html=1;rounded=0;fontSize=12;startSize=8;endSize=8;curved=1;" edge="1" parent="1">
          <mxGeometry width="50" height="50" relative="1" as="geometry">
            <mxPoint x="-1300" y="-1040" as="sourcePoint" />
            <mxPoint x="-1300" y="-1440" as="targetPoint" />
          </mxGeometry>
        </mxCell>
        <mxCell id="n46B39q-hXr88YNmP09C-8" value="" style="endArrow=none;html=1;rounded=0;fontSize=12;startSize=8;endSize=8;curved=1;" edge="1" parent="1">
          <mxGeometry width="50" height="50" relative="1" as="geometry">
            <mxPoint x="-1300" y="-1440" as="sourcePoint" />
            <mxPoint x="-270" y="-1440" as="targetPoint" />
          </mxGeometry>
        </mxCell>
        <mxCell id="n46B39q-hXr88YNmP09C-9" value="" style="endArrow=none;html=1;rounded=0;fontSize=12;startSize=8;endSize=8;curved=1;" edge="1" parent="1">
          <mxGeometry width="50" height="50" relative="1" as="geometry">
            <mxPoint x="-270" y="-1120" as="sourcePoint" />
            <mxPoint x="-270" y="-1440" as="targetPoint" />
          </mxGeometry>
        </mxCell>
        <mxCell id="n46B39q-hXr88YNmP09C-10" value="" style="endArrow=classic;html=1;rounded=0;fontSize=12;startSize=8;endSize=8;curved=1;entryX=0;entryY=0.5;entryDx=0;entryDy=0;" edge="1" parent="1" target="4-B0RwPiIrZEXIzjVuO4-14">
          <mxGeometry width="50" height="50" relative="1" as="geometry">
            <mxPoint x="-270" y="-1120" as="sourcePoint" />
            <mxPoint x="-220" y="-1170" as="targetPoint" />
          </mxGeometry>
        </mxCell>
        <mxCell id="n46B39q-hXr88YNmP09C-11" value="" style="endArrow=none;html=1;rounded=0;fontSize=12;startSize=8;endSize=8;curved=1;" edge="1" parent="1">
          <mxGeometry width="50" height="50" relative="1" as="geometry">
            <mxPoint x="-840" y="-880" as="sourcePoint" />
            <mxPoint x="-840" y="-1100" as="targetPoint" />
          </mxGeometry>
        </mxCell>
        <mxCell id="n46B39q-hXr88YNmP09C-12" value="" style="endArrow=classic;html=1;rounded=0;fontSize=12;startSize=8;endSize=8;curved=1;entryX=0;entryY=0.5;entryDx=0;entryDy=0;" edge="1" parent="1" target="ggQNaz5vZSvYGQJoHqNT-179">
          <mxGeometry width="50" height="50" relative="1" as="geometry">
            <mxPoint x="-840" y="-880" as="sourcePoint" />
            <mxPoint x="-790" y="-930" as="targetPoint" />
          </mxGeometry>
        </mxCell>
      </root>
    </mxGraphModel>
  </diagram>
</mxfile>
